# xmcd CD database file
#
# Track frame offsets:
#	150
#	10457
#	22974
#	36899
#	49034
#	60396
#	73794
#	84543
#	96744
#	109659
#	120187
#	136423
#	148927
#	161485
#	174952
#	187928
#	200048
#	214763
#	227254
#	240600
#	253566
#	268437
#	283122
#	296837
#	309505
#	324897
#	339388
#
# Disc length: 4704 seconds
#
# Revision: 0
# Processed by: cddbd v1.5.2PL0 Copyright (c) Steve Scherf et al.
# Submitted via: CDex 1.51
#
DISCID=8b125e1b
DTITLE=Various Artist - Blow Your Harmonica Son ! (Selected By Jean-Jacques milteau and Leroy Ferdinand)
DYEAR=2012
DGENRE=Blues
TTITLE0=Slim Harpo_Buzz Me Babe
TTITLE1=Howlin' Wolf_Wolf In The Mood
TTITLE2=Sonny Boy Williamson II_Steady Rollin' Man
TTITLE3=Little Walter_I Got To Go
TTITLE4=Junior Wells_Please Throw This Poor Dog A Bone
TTITLE5=Doctor Ross_Chicago Breakdown
TTITLE6=Harmonica Franck_Step It Up and Go
TTITLE7=Wayne Raney_Lost John Boogie
TTITLE8=Forest City Joe_Lonesome Day Blues
TTITLE9=Snooky Prior_Boogie
TTITLE10=Buster Brown_I'm Gonna Make You Happy
TTITLE11=Frank Edwards_Terraplane Blues
TTITLE12=Robert Lee McCoy_If You Take Me Back
TTITLE13=Rhythm Willie_Bedroom Stomp
TTITLE14=Sonny Boy WilliamsonI_Welfare Store Blues
TTITLE15=Bill Jazz Gillum_Key To The Highway
TTITLE16=Sonny Terry_Lost John
TTITLE17=Daddy Stovepipe_If You Want Me Baby
TTITLE18=Buddy Moss_Next Door Man
TTITLE19=Will Shade_Cocaine Habit Blues
TTITLE20=Alfred Lewis_Mississipi Swamp Moan
TTITLE21=James Blues Birdhead_Mean Low Blues
TTITLE22=Vernon Dalhart_The Farm Relief Song
TTITLE23=Eddie Mapp_Riding The Blinds
TTITLE24=DeFord Bailey_Davidson County Blues
TTITLE25=Noah Lewis_Viola Lee Blues
TTITLE26=Five Harmaniacs_Sadie Green, The Vamp Of New Orleans
EXTD=YEAR: 2012
EXTT0=
EXTT1=
EXTT2=
EXTT3=
EXTT4=
EXTT5=
EXTT6=
EXTT7=
EXTT8=
EXTT9=
EXTT10=
EXTT11=
EXTT12=
EXTT13=
EXTT14=
EXTT15=
EXTT16=
EXTT17=
EXTT18=
EXTT19=
EXTT20=
EXTT21=
EXTT22=
EXTT23=
EXTT24=
EXTT25=
EXTT26=
PLAYORDER=
